{"title":"Whos.Next.2012.BRRiP.x264.AC3-MiLLENiUM","uid":9347182,"size":645435117,"categoryP":"video","categoryS":"movies","magnet":"?xt=urn:btih:ee8a50fbdf08044e945331467194c8524cdebf54&amp;dn=Whos.Next.2012.BRRiP.x264.AC3-MiLLENiUM&amp;tr=udp%3A%2F%2Ftracker.openbittorrent.com%3A80&amp;tr=udp%3A%2F%2Fopen.demonii.com%3A1337&amp;tr=udp%3A%2F%2Ftracker.coppersurfer.tk%3A6969&amp;tr=udp%3A%2F%2Fexodus.desync.com%3A6969","seeders":0,"leechers":0,"uploader":"Acesn8s","files":4,"time":1387057640,"description":"Cover : \n &lt;a href=&quot;\nhttp://s16.postimg.org/c2fqzf839/y58tn9dz.jpg&quot; rel=&quot;nofollow&quot; target=&quot;_NEW&quot;&gt;\nhttp://s16.postimg.org/c2fqzf839/y58tn9dz.jpg&lt;/a&gt;\n\n----------------------------------------------------------------------------------\n\nWhos.Next.2012.BRRiP.x264.AC3-MiLLENiUM\n\nAKA: Lost Lake 2012                \n\nGeneral : \n\nSource...............: 1080p.BluRay.x264-LeetHD [THANKS]\n\nSample Included......: yes\n\nGeneral\nComplete name                            : Whos Next 2012 BRRip x264 AC3-MiLLENiUM.mkv\nFormat                                   : Matroska\nFormat version                           : Version 2\nFile size                                : 605 MiB\nDuration                                 : 1h 20mn\nOverall bit rate mode                    : Variable\nOverall bit rate                         : 1 049 Kbps\nEncoded date                             : UTC 2013-12-14 19:38:06\nWriting application                      : mkvmerge v6.5.0 ('Isn't she lovely') built on Oct 20 2013 12:50:05\nWriting library                          : libebml v1.3.0 + libmatroska v1.4.1\n\nVideo\nID                                       : 1\nFormat                                   : AVC\nFormat/Info                              : Advanced Video Codec\nFormat profile                           : &lt;a class=&quot;__cf_email__&quot; href=&quot;/cdn-cgi/l/email-protection&quot; data-cfemail=&quot;6c24050b042c2058425d&quot;&gt;[email&amp;#160;protected]&lt;/a&gt;&lt;script data-cfhash='f9e31' type=&quot;text/javascript&quot;&gt;\n/* &lt;![CDATA[ */!function(){try{var t=&quot;currentScript&quot;in document?document.currentScript:function(){for(var t=document.getElementsByTagName(&quot;script&quot;),e=t.length;e--;)if(t[e].getAttribute(&quot;data-cfhash&quot;))return t[e]}();if(t&amp;&amp;t.previousSibling){var e,r,n,i,c=t.previousSibling,a=c.getAttribute(&quot;data-cfemail&quot;);if(a){for(e=&quot;&quot;,r=parseInt(a.substr(0,2),16),n=2;a.length-n;n+=2)i=parseInt(a.substr(n,2),16)^r,e+=String.fromCharCode(i);e=document.createTextNode(e),c.parentNode.replaceChild(e,c)}t.parentNode.removeChild(t);}}catch(u){}}()/* ]]&gt; */&lt;/script&gt;\nFormat settings, CABAC                   : Yes\nFormat settings, ReFrames                : 3 frames\nCodec ID                                 : V_MPEG4/ISO/AVC\nDuration                                 : 1h 20mn\nBit rate mode                            : Variable\nBit rate                                 : 580 Kbps\nMaximum bit rate                         : 40.0 Mbps\nWidth                                    : 720 pixels\nHeight                                   : 304 pixels\nDisplay aspect ratio                     : 2.35:1\nFrame rate mode                          : Constant\nFrame rate                               : 25.000 fps\nColor space                              : YUV\nChroma subsampling                       : 4:2:0\nBit depth                                : 8 bits\nScan type                                : Progressive\nBits/(Pixel*Frame)                       : 0.106\nStream size                              : 335 MiB (55%)\nWriting library                          : x264 core 140 r2377 1ca7bb9\n\nAudio\nID                                       : 2\nFormat                                   : AC-3\nFormat/Info                              : Audio Coding 3\nMode extension                           : CM (complete main)\nFormat settings, Endianness              : Big\nCodec ID                                 : A_AC3\nDuration                                 : 1h 20mn\nBit rate mode                            : Constant\nBit rate                                 : 448 Kbps\nChannel(s)                               : 6 channels\nChannel positions                        : Front: L C R, Side: L R, LFE\nSampling rate                            : 48.0 KHz\nBit depth                                : 16 bits\nCompression mode                         : Lossy\nStream size                              : 259 MiB (43%)\nLanguage                                 : English\nDefault                                  : Yes\nForced                                   : No\n &lt;a href=&quot;\nhttp://www.imdb.com/title/tt1890455/&quot; rel=&quot;nofollow&quot; target=&quot;_NEW&quot;&gt;\nhttp://www.imdb.com/title/tt1890455/&lt;/a&gt;\n\nPlot :\n\nA young couple travels to a deserted town to try and find their mysterious uncle, only to discover that ghosts are real and very dangerous.\n\nScreenshots :\n\n &lt;a href=&quot;\nhttp://s27.postimg.org/gqhmmisyr/vlcsnap_2013_12_14_20h40m35s25.png&quot; rel=&quot;nofollow&quot; target=&quot;_NEW&quot;&gt;\nhttp://s27.postimg.org/gqhmmisyr/vlcsnap_2013_12_14_20h40m35s25.png&lt;/a&gt;\n &lt;a href=&quot;\nhttp://s27.postimg.org/r5nsvfq5f/vlcsnap_2013_12_14_20h40m59s21.png&quot; rel=&quot;nofollow&quot; target=&quot;_NEW&quot;&gt;\nhttp://s27.postimg.org/r5nsvfq5f/vlcsnap_2013_12_14_20h40m59s21.png&lt;/a&gt;\n &lt;a href=&quot;\nhttp://s27.postimg.org/aj68mcx7n/vlcsnap_2013_12_14_20h42m30s148.png&quot; rel=&quot;nofollow&quot; target=&quot;_NEW&quot;&gt;\nhttp://s27.postimg.org/aj68mcx7n/vlcsnap_2013_12_14_20h42m30s148.png&lt;/a&gt;\n &lt;a href=&quot;\nhttp://s27.postimg.org/41nc2umub/vlcsnap_2013_12_14_20h43m15s126.png&quot; rel=&quot;nofollow&quot; target=&quot;_NEW&quot;&gt;\nhttp://s27.postimg.org/41nc2umub/vlcsnap_2013_12_14_20h43m15s126.png&lt;/a&gt;\n &lt;a href=&quot;\nhttp://s27.postimg.org/3q5vq36eb/vlcsnap_2013_12_14_20h43m49s169.png&quot; rel=&quot;nofollow&quot; target=&quot;_NEW&quot;&gt;\nhttp://s27.postimg.org/3q5vq36eb/vlcsnap_2013_12_14_20h43m49s169.png&lt;/a&gt;","torrent":{"xt":"urn:btih:ee8a50fbdf08044e945331467194c8524cdebf54","amp;dn":"Whos.Next.2012.BRRiP.x264.AC3-MiLLENiUM","amp;tr":["udp%3A%2F%2Ftracker.openbittorrent.com%3A80","udp%3A%2F%2Fopen.demonii.com%3A1337","udp%3A%2F%2Ftracker.coppersurfer.tk%3A6969","udp%3A%2F%2Fexodus.desync.com%3A6969"],"infoHash":"ee8a50fbdf08044e945331467194c8524cdebf54","infoHashBuffer":{"type":"Buffer","data":[238,138,80,251,223,8,4,78,148,83,49,70,113,148,200,82,76,222,191,84]},"announce":[],"urlList":[]}}